<svg version="1.1" id="Layer_1" xmlns="http://www.w3.org/2000/svg" xmlns:xlink="http://www.w3.org/1999/xlink" x="0px" y="0px"
	 width="100%" viewBox="0 0 912 912" enable-background="new 0 0 912 912" xml:space="preserve">
<path fill="#000000" opacity="1.000000" stroke="none" 
	d="
M33.916580,606.000549 
	C24.643469,584.787598 19.467813,562.709229 14.758810,540.622803 
	C10.812325,522.112854 8.055455,503.327881 6.723214,484.347412 
	C4.921477,458.677917 4.959504,433.031982 8.090700,407.548279 
	C10.683468,386.446655 14.533184,365.530609 19.794617,344.816376 
	C25.259726,323.300262 32.680279,302.573486 41.192963,282.202484 
	C49.221592,262.989807 59.257584,244.773590 70.179832,227.021942 
	C97.092247,183.281815 131.193634,145.883698 171.066742,113.840759 
	C197.848740,92.318130 226.884369,74.183144 258.052032,59.354980 
	C280.074463,48.877708 302.611877,39.885578 325.953583,33.216030 
	C348.977081,26.637411 372.394226,21.502235 396.296631,18.702457 
	C416.003082,16.394169 435.708252,14.589256 455.542633,14.780605 
	C485.553925,15.070132 515.313416,17.791843 544.916565,23.093414 
	C590.030151,31.172701 632.832886,45.979740 673.263916,67.160477 
	C704.707336,83.632881 734.216064,103.243080 760.938171,126.944069 
	C776.678711,140.905060 791.719788,155.498566 805.379456,171.420288 
	C822.417725,191.280029 837.840332,212.386307 851.070007,235.031631 
	C863.947388,257.073883 874.827942,280.006470 883.858398,303.926147 
	C891.404419,323.914032 897.176941,344.343903 901.574219,365.157501 
	C906.010986,386.157471 908.702698,407.408752 910.347595,428.872681 
	C912.204773,453.105011 910.877014,477.199707 908.790527,501.210480 
	C907.399109,517.223206 903.572327,533.057739 900.331116,548.868652 
	C894.903625,575.344055 886.503052,600.965637 875.617493,625.647827 
	C866.418274,646.506470 855.680054,666.608521 843.408386,685.927490 
	C825.186096,714.614441 803.814392,740.769836 779.812073,764.601746 
	C759.610229,784.660156 737.337830,802.496704 713.455811,818.167664 
	C686.654480,835.754333 658.473755,850.716125 628.532837,862.218872 
	C601.446106,872.624939 573.629089,880.677002 545.005981,885.428101 
	C522.528259,889.159119 499.870453,891.506775 477.014862,892.114990 
	C444.643280,892.976685 412.492676,891.730957 380.452820,886.570557 
	C345.630463,880.962036 311.690186,872.398682 279.215973,858.545227 
	C243.686066,843.388245 210.407898,824.315674 179.632294,800.865173 
	C157.038498,783.649109 136.416855,764.376892 117.293709,743.415649 
	C95.066643,719.052063 76.246475,692.188232 60.268612,663.476990 
	C50.092762,645.191711 40.665253,626.375000 33.916580,606.000549 
M658.279358,582.684814 
	C656.863220,594.411926 654.860657,605.979919 651.134399,617.269653 
	C642.569275,643.219910 628.644775,665.883362 609.395447,685.121826 
	C589.017517,705.488281 565.468323,721.199097 538.257812,731.146362 
	C518.320740,738.434631 497.982178,743.986267 476.671967,745.072998 
	C472.734528,745.273804 472.014587,747.089905 471.951263,750.386902 
	C471.278931,785.376648 471.120117,820.368835 471.382111,855.362854 
	C471.426605,861.310913 472.141174,861.914185 478.109558,861.820557 
	C493.966705,861.571899 509.679169,859.642822 525.330933,857.332581 
	C558.752808,852.399658 590.866089,842.557129 622.109497,830.017395 
	C647.486267,819.832214 671.548828,806.831055 694.268616,791.644470 
	C718.790100,775.253540 741.610168,756.717163 762.398193,735.625366 
	C779.306763,718.469727 794.617493,700.003174 808.249268,680.313232 
	C824.461365,656.896240 837.965088,631.820923 848.762939,605.349365 
	C856.133057,587.281128 862.239319,568.834595 867.393555,550.021545 
	C871.982117,533.273071 873.879395,516.082275 876.651001,499.029938 
	C878.256592,489.151459 877.117981,488.158691 867.909546,491.269043 
	C867.436157,491.428955 866.971191,491.613922 866.501099,491.783783 
	C845.017151,499.546600 823.354553,498.061798 801.597473,493.123596 
	C791.120850,490.745667 782.195862,485.309357 773.629089,479.182404 
	C770.184326,476.718658 767.638855,477.014740 764.495178,480.008698 
	C751.442871,492.439636 735.062927,498.398102 717.805786,500.879730 
	C704.893860,502.736511 691.630493,503.195557 678.455872,501.216248 
	C657.713379,498.099884 638.772522,491.233185 623.631958,476.093109 
	C621.205505,473.666748 619.064148,473.466583 616.087341,474.757019 
	C609.073059,477.797760 602.029663,480.803345 594.858704,483.444855 
	C564.510986,494.623810 532.507507,497.635345 500.763367,500.641113 
	C474.982483,503.082245 448.940674,503.645264 422.917969,502.211090 
	C399.731903,500.933289 377.021820,496.385925 354.117462,493.290100 
	C334.937653,490.697754 316.649200,484.126709 299.316956,475.280182 
	C296.310303,473.745605 293.807068,473.955444 291.088654,476.222961 
	C286.103668,480.381226 280.822632,484.213318 274.953949,487.060760 
	C253.339737,497.547729 230.393631,499.531494 206.803741,497.852417 
	C186.768845,496.426392 168.107010,491.291931 152.049484,478.721039 
	C149.017700,476.347534 147.232895,478.141174 145.147491,479.841461 
	C130.959045,491.409637 115.192924,499.579742 96.790764,501.779358 
	C89.546051,502.645355 82.429993,505.067017 74.991600,503.885590 
	C65.023628,502.302368 54.646526,502.481079 45.553417,497.081726 
	C44.996063,496.750732 44.302662,496.620789 43.655087,496.474884 
	C41.266151,495.936676 40.072380,496.844666 40.450783,499.342773 
	C42.194328,510.853149 43.096188,522.578613 45.924107,533.818298 
	C51.271000,555.069763 56.767147,576.245728 64.745636,596.838501 
	C76.624489,627.498291 92.075424,656.123962 110.661591,682.988831 
	C123.614899,701.711914 138.333206,719.139709 154.539597,735.357727 
	C167.047180,747.874329 179.985245,759.836426 193.752106,770.839539 
	C212.498428,785.822510 232.448654,799.147522 253.684784,810.403442 
	C268.533569,818.273987 283.536407,825.958130 299.390778,831.575989 
	C316.096375,837.495422 332.496704,844.383728 349.969452,848.062805 
	C357.926178,849.738220 365.565704,853.228821 373.564819,854.332458 
	C392.670349,856.968567 411.622742,861.049561 431.059418,861.054504 
	C438.730988,861.056396 438.777649,861.366821 438.776733,853.542053 
	C438.772980,821.542358 438.748016,789.542664 438.695618,757.543030 
	C438.691528,755.051331 438.337402,752.561768 438.284454,750.068237 
	C438.212433,746.678833 436.811401,745.066528 433.193237,744.788696 
	C428.224854,744.407166 423.270142,743.566956 418.371033,742.608948 
	C386.075897,736.293579 356.172455,724.278503 329.519623,704.748962 
	C308.969971,689.691528 292.151855,671.174988 279.473785,649.064697 
	C271.338654,634.877258 264.719635,619.978821 261.270782,603.888245 
	C259.461029,595.444824 257.908600,586.923462 257.858063,578.236450 
	C257.793274,567.099670 263.998962,560.958252 275.023834,560.722168 
	C290.097565,560.399414 304.862915,562.443848 319.593719,565.471985 
	C350.088135,571.740540 377.798706,584.225342 402.912323,602.440247 
	C422.132385,616.380493 437.856964,633.605957 450.041748,654.079102 
	C452.242828,657.777466 453.621460,662.197998 457.163300,665.055359 
	C459.285492,663.649963 459.889648,661.670410 460.800598,659.923767 
	C468.652618,644.869385 478.932434,631.630188 491.071594,619.838928 
	C509.654114,601.789062 530.891479,587.891907 554.841858,577.767883 
	C576.402893,568.653748 598.763245,563.395508 621.888611,561.079956 
	C628.988708,560.368958 636.210083,560.863098 643.375977,560.818665 
	C645.931335,560.802856 648.244812,561.503052 650.487732,562.808472 
	C657.988647,567.174072 659.172913,574.059204 658.279358,582.684814 
M764.579651,347.053223 
	C768.214417,356.181641 770.610046,365.658600 773.105469,375.153229 
	C778.496094,395.663452 782.407593,416.369843 782.839478,437.584991 
	C782.959595,443.486694 784.999573,447.837677 789.211060,451.528870 
	C793.758057,455.513977 798.815857,458.956604 804.322266,461.179840 
	C827.528259,470.549316 849.912170,469.240570 870.684692,454.439941 
	C874.924805,451.418793 878.998352,448.086243 878.963135,441.676666 
	C878.830566,417.572449 875.204529,393.836853 870.370667,370.400269 
	C866.281799,350.575958 859.985718,331.251160 852.694885,312.236053 
	C840.035339,279.218506 823.469727,248.388062 802.701294,219.883591 
	C769.654480,174.527222 729.249023,137.071686 681.148254,107.932968 
	C660.424133,95.378624 638.839722,84.650887 616.340027,75.816055 
	C597.137817,68.276039 577.559814,61.883949 557.422852,57.067551 
	C534.699585,51.632576 511.896637,47.301746 488.528198,45.975208 
	C470.548676,44.954575 452.597656,45.708534 434.635345,46.053761 
	C429.144135,46.159302 423.622589,46.188137 418.174927,46.792484 
	C396.156128,49.235203 374.403809,52.924030 352.919464,58.654362 
	C332.439270,64.116859 312.409180,70.860550 293.034851,79.151672 
	C264.104340,91.532288 236.420242,106.347198 210.727188,124.844101 
	C184.913452,143.427872 161.127548,164.156281 140.136200,187.995346 
	C118.831589,212.190170 100.675110,238.568085 85.417107,267.061218 
	C68.657486,298.358551 55.970264,331.158142 47.615540,365.544373 
	C41.274330,391.643402 38.174335,418.287109 38.042568,445.216583 
	C38.027252,448.346436 38.784752,451.060425 40.510410,453.665344 
	C51.080460,469.621216 66.873909,473.688202 84.547600,472.310730 
	C99.214272,471.167633 112.077919,464.844147 123.440781,455.669556 
	C129.940689,450.421478 134.788879,444.179535 134.754669,435.040771 
	C134.650040,407.103088 141.000839,380.288879 149.689011,353.967133 
	C159.261353,324.966644 173.519897,298.306335 191.284470,273.554779 
	C206.184494,252.794418 223.440506,234.178558 242.810898,217.412186 
	C261.817719,200.960449 282.504791,186.958633 304.637329,175.393387 
	C326.451416,163.994553 349.501526,155.306198 373.482422,149.158096 
	C396.332031,143.299988 419.504272,139.991928 442.998260,139.115982 
	C478.285370,137.800354 513.027649,141.146255 547.231445,150.715515 
	C572.700012,157.840912 596.887329,167.594543 620.000305,180.338333 
	C648.639771,196.129257 674.329712,215.613495 696.991089,239.261108 
	C707.869812,250.613251 717.766968,262.712952 726.784485,275.478027 
	C742.303528,297.446533 755.045532,320.987793 764.579651,347.053223 
M391.051208,176.638306 
	C382.113647,179.277924 373.121338,181.683167 364.282928,184.712189 
	C321.891388,199.240295 284.244965,221.650543 251.987762,252.714905 
	C234.564713,269.493683 219.466095,288.300385 206.878799,309.087708 
	C193.264313,331.571411 182.472107,355.200623 175.519241,380.608521 
	C169.922668,401.060120 165.517517,421.628204 165.952026,442.986908 
	C166.015549,446.109985 166.423599,448.726654 168.953033,451.026611 
	C178.672638,459.864380 190.494934,464.432922 203.020554,466.503357 
	C215.988525,468.646942 229.075638,468.346436 242.108322,465.022125 
	C253.676666,462.071320 263.857178,456.982727 272.893402,449.345917 
	C275.332458,447.284576 276.384735,444.664093 276.648224,441.489960 
	C278.227081,422.471588 282.285828,404.023651 289.813995,386.429596 
	C303.117493,355.338074 323.796448,330.230225 351.327271,310.663086 
	C365.402161,300.659546 380.542297,292.574554 396.848206,287.102966 
	C421.739258,278.750458 447.465454,275.870361 473.660950,277.904968 
	C487.959839,279.015594 502.160034,281.230316 515.738098,285.859497 
	C540.529724,294.311615 563.235046,306.567719 582.706543,324.420898 
	C601.381775,341.544006 616.114685,361.463409 626.141846,384.763947 
	C633.768860,402.487091 638.270203,421.066376 640.064575,440.225189 
	C640.712769,447.145782 643.850769,451.986328 648.944336,456.211548 
	C660.692810,465.957184 674.815796,469.734406 689.373596,471.765686 
	C704.292542,473.847412 718.527527,470.010681 732.002075,463.833374 
	C738.349487,460.923431 743.828064,456.418396 748.519165,451.089417 
	C750.380432,448.975098 751.527588,446.595886 751.431763,443.854523 
	C751.210632,437.534790 751.230835,431.155396 750.326965,424.919983 
	C746.911804,401.360626 742.082397,378.225525 733.320129,355.852814 
	C720.349670,322.735413 702.363403,292.974152 678.477478,266.668640 
	C657.821167,243.919861 634.328369,224.775894 607.670898,209.447800 
	C598.126526,203.959763 588.291016,199.157928 578.257263,194.669739 
	C559.187561,186.139618 539.409058,179.687134 519.054321,175.262650 
	C503.788544,171.944336 488.245117,170.427887 472.565430,169.577072 
	C449.824707,168.343109 427.357666,169.408218 405.007751,173.562836 
	C400.594482,174.383209 396.224945,175.439026 391.051208,176.638306 
M330.051300,378.538147 
	C325.768646,385.488068 321.769775,392.599701 318.797729,400.214600 
	C313.882568,412.807983 309.774170,425.628571 309.066315,439.273743 
	C308.927704,441.945496 308.810059,444.688690 311.905701,446.116241 
	C316.436523,448.205597 320.816803,450.672485 325.463135,452.450928 
	C342.128784,458.830048 359.280304,462.886810 377.024872,465.573303 
	C399.480774,468.973083 421.918915,471.406067 444.586365,472.011017 
	C459.754364,472.415833 474.897919,471.702606 490.043976,470.977173 
	C508.547394,470.090912 526.829590,467.123474 545.030334,464.154968 
	C564.071899,461.049377 582.535767,455.241638 600.201477,447.168976 
	C607.997070,443.606598 608.842468,442.825928 607.612000,434.365051 
	C604.195740,410.873718 595.518066,389.407593 581.449036,370.339020 
	C563.704346,346.288513 540.770203,328.804077 512.692200,318.330170 
	C487.470978,308.921936 461.430664,304.498627 434.778809,309.575867 
	C390.776459,317.958405 355.162628,339.790344 330.051300,378.538147 
M512.009949,645.475769 
	C495.454132,662.341736 484.365417,682.336548 477.904358,704.991333 
	C476.157440,711.116455 477.295258,712.478943 483.755554,711.783264 
	C484.582092,711.694275 485.405640,711.567200 486.225494,711.427917 
	C506.650177,707.957458 526.404175,702.509888 544.851074,692.710876 
	C561.169006,684.042847 575.869568,673.296936 588.427856,659.786133 
	C598.887573,648.533081 607.625671,635.989258 614.250977,622.073120 
	C617.983276,614.233643 620.393005,605.918030 622.541870,597.531738 
	C623.298706,594.578308 622.347229,592.946411 619.015503,593.459167 
	C614.254150,594.191956 609.437073,594.673523 604.742188,595.708374 
	C586.324158,599.768066 568.653687,605.863159 552.073242,615.032104 
	C537.430786,623.129395 523.888184,632.600952 512.009949,645.475769 
M300.914978,594.794128 
	C298.661896,594.514160 296.403412,593.498962 293.848572,594.922058 
	C294.032349,599.886292 295.733490,604.510132 297.298523,609.197998 
	C306.842773,637.786682 324.609283,660.326782 348.432953,678.271057 
	C373.315063,697.012512 401.567108,707.439575 432.328125,711.505554 
	C436.139160,712.009399 437.513489,710.659607 436.596588,707.226929 
	C435.054962,701.455078 433.650208,695.574402 431.353058,690.089111 
	C420.832489,664.966858 404.419006,644.411987 382.571289,628.135254 
	C358.453125,610.166992 331.415039,599.397278 300.914978,594.794128 
z"/>
</svg>